<?xml version="1.0" encoding="utf-8"?>
<!-- Generator: Adobe Illustrator 24.1.3, SVG Export Plug-In . SVG Version: 6.00 Build 0)  -->
<svg version="1.1" id="Layer_1" xmlns="http://www.w3.org/2000/svg" xmlns:xlink="http://www.w3.org/1999/xlink" x="0px" y="0px"
	 viewBox="0 0 582.6 847.3" style="enable-background:new 0 0 582.6 847.3;" xml:space="preserve">
<style type="text/css">
	.st0{clip-path:url(#SVGID_2_);}
	.st1{fill:#542A75;}
	.st2{fill:#0074BB;}
	.st3{opacity:0.3;fill:#231F20;}
	.st4{clip-path:url(#SVGID_4_);}
	.st5{fill:#EF4D25;}
	.st6{fill:#D71F33;}
	.st7{fill:#15AA4F;}
	.st8{fill:#F9D309;}
	.st9{fill:#231F20;}
</style>
<g>
	<g>
		<defs>
			<path id="SVGID_1_" d="M90.1,847.3c-22,0-45.2-4.9-61.5-12.3l7.1-33.2c17.4,5.4,35.2,9.1,54.9,9.1c22,0,26.3-4.3,26.3-20.3
				c0-17.2-0.9-19.2-32-26c-46-10-52.9-19.2-52.9-60.3c0-38,13.4-53.2,65.8-53.2c16.6,0,36.6,1.7,57.8,6.3l-4.3,36
				c-21.7-3.7-35.7-5.4-52.9-5.4c-19.2,0-23.4,3.4-23.4,17.4c0,18.3,0.9,18.6,30.9,25.7c51.5,12.3,54,22.3,54,59.8
				C159.9,828.7,147.6,847.3,90.1,847.3z M365.4,844.5V654h42.9v190.4H365.4z M522.8,692.1v152.4h-42.9V692.1h-51.2v-38H574v38
				H522.8z M344.8,844.5L286.4,654h-57.2l-58,190.4h34.1v0h10.6c8.1-7.1,19.9-18.7,31.8-25.2c17.6-9.6,32.3-10.9,42.9-9.8l9.7,35
				H344.8z M258.9,771.9c-8.4,2.1-17.8,6.7-26.3,11.8l25.3-91.9l21.5,77.6C272.7,769.3,265.7,770.2,258.9,771.9z"/>
		</defs>
		<clipPath id="SVGID_2_">
			<use xlink:href="#SVGID_1_"  style="overflow:visible;"/>
		</clipPath>
		<g class="st0">
			<rect x="-36.3" y="749.3" class="st1" width="708.5" height="115.8"/>
			<rect x="-36.3" y="635.1" class="st2" width="708.5" height="114.2"/>
		</g>
	</g>
	<path class="st3" d="M290.3,808.8l-10.9-39.5c-4.1,0-8.2,0.3-12.4,0.9L290.3,808.8z"/>
	<g>
		<defs>
			<path id="SVGID_3_" d="M245.4,404.5c-0.7,1-1.4,2.1-2,3.1c-26,40-47.9,83.2-72.8,102.8c15.1-13.2,18.1-39.3,12.4-57.1
				c-5.6-17.6-17.6-34.7-60.3-53.6C96.7,388.3,39,364.1,18.1,344.9c-20.9-19.2-24.7-47.4-6.3-102.4c20.3-60.8,56.2-102.6,90.4-102.6
				c-1.6,6.3-15.5,61.2-15.5,61.2s-4-6.9-12.2-6.9c-12.1,0-30,16.3-39.9,46.2c-6.2,18.5-2.6,39.3,9.1,45.6
				c19.6,10.4,71.2,25.5,116.9,47.1C199.8,351.5,230.5,380.5,245.4,404.5z M454,239.9c-34-41.3-60-68.6-60-99.2
				c0-23.9,17.3-39.2,35.1-44.4c-27.8,4.5-66.5,16.3-98.7,26.7c-3.7,1.2-7.6,2.5-11.7,3.9c0,0.1-0.1,0.1-0.1,0.1v0
				c-2.1,6.9-3.4,14.5-3.4,23.2c0,42.1,42.6,94.5,69.7,130.9c27.1,36.4,84.9,98.3,84.9,142.3c0,40.1-27.2,62.5-61,62.5
				c-54.9,0-64.5-63.1-64.5-63.1l-53.8,76.8c0,0,46.8,66,119.2,66c80.7,0,143.3-68.5,143.3-143.3C553.1,352.9,488.1,281.2,454,239.9
				z M445.6,40.6c-30.9,0-78,14.4-118.8,26.5c-40.2,12-96.5,33.1-123.1,33.1c-18.8,0-24.2-14.6-19.1-26.5
				c-7.3,15.5-15.1,49.5-22,83.1c7.6,2.7,19.5,5.3,30.6,5.3c31.5,0,96.4-25.9,137.3-39.1S423,94.2,449,94.2
				c26,0,59.5,18.5,59.5,52.7c0,37.6-33.3,46.6-51.8,46.6c-13.1,0-25.4-2-25.4-2l63.8,77c0,0,87.6-31.2,87.6-106.7
				C582.6,90.6,513.4,40.6,445.6,40.6z M343.5,48.8c0,0-0.3-48.8-52.5-48.8c-85.5,0-134.8,49.9-153.7,84.7
				C119,118.3,107.1,173,99.1,204.9c-9.4,37.5-23.6,87.2-53.6,82c0,0,0.1,0,0.1,0.1c13.9,6.9,40.5,15.8,69.9,27.1
				c13.4-21.1,26.3-54.3,33-85.9c7.8-36.9,22.9-126.4,36.1-154.5c13.3-28.1,42.3-41.2,65.7-41.2c37.3,0,16.9,40,16.9,40L343.5,48.8z
				 M463.2,393.8L463.2,393.8c-0.9-2.1-1.8-4.2-2.7-6.3c-0.7-1.5-1.5-3.1-2.2-4.6c-18.2-36.1-52.9-74.9-72.6-101.1
				c-63.5,5.6-107.3,72.2-142.3,125.9c-35,53.8-62.5,113.5-100.1,113.5c-23.4,0-50.4-27.5-50.4-64.8c0-35.3,28.3-43.2,28.3-43.2
				l-59.4-27c0,0-16.5,18.8-16.5,63.9c0,65.3,54.1,141.2,119,141.2c65.8,0,92.9-66,127.2-116.2c48.3-71,77.8-113.6,120.3-113.6
				C426.5,361.4,452,370.9,463.2,393.8L463.2,393.8z"/>
		</defs>
		<clipPath id="SVGID_4_">
			<use xlink:href="#SVGID_3_"  style="overflow:visible;"/>
		</clipPath>
		<g class="st4">
			<rect x="-36.3" y="134.6" class="st5" width="708.5" height="162.7"/>
			<rect x="-36.3" y="-1.4" class="st6" width="708.5" height="136"/>
			<rect x="-36.3" y="423.7" class="st7" width="708.5" height="167.9"/>
			<rect x="-36.3" y="281.8" class="st8" width="708.5" height="141.9"/>
		</g>
	</g>
	<path class="st3" d="M413.6,103.7C413.6,103.7,413.6,103.7,413.6,103.7L413.6,103.7c1.2-0.8,2.5-1.6,3.7-2.4l0,0
		c0.1-0.1,0.2-0.1,0.3-0.2c0,0,0,0,0,0l0,0c1.1-0.6,2.2-1.2,3.4-1.8c0.2-0.1,0.3-0.2,0.5-0.2l0,0c0,0,0,0,0,0c1-0.4,1.9-0.9,2.9-1.2
		c0,0,0,0,0,0l0,0c0.3-0.1,0.6-0.3,0.9-0.4l0,0c1.2-0.5,2.5-0.9,3.7-1.3c0,0,0,0,0,0c0,0,0,0,0,0c0,0,0,0,0,0
		c-6.9,1.1-14.6,2.7-22.6,4.6c-0.3,0.1-0.6,0.2-0.9,0.2c-9.8,2.3-20.1,5.1-30.6,8.1c-0.2,0.1-0.5,0.1-0.7,0.2c-4,1.2-8,2.3-12,3.5
		c-1.4,0.4-2.7,0.8-4.1,1.2c-4.1,1.2-8.2,2.5-12.2,3.8c-1.7,0.5-3.4,1.1-5.1,1.6c-3.5,1.1-7.1,2.3-10.5,3.4
		c-3.7,1.2-7.6,2.5-11.7,3.9c0,0.1-0.1,0.1-0.1,0.1v0c-1.9,6.2-3.1,13.1-3.3,20.7C338.9,137.6,385.8,117.1,413.6,103.7z"/>
	<path class="st9" d="M184.6,73.7"/>
	<path class="st3" d="M115.5,314L115.5,314c3.1-4.8,6.1-10.3,9-16.2c-26.8-4.2-78.1-10.8-79-11c0,0,0.1,0,0.1,0.1c0,0,0,0,0,0
		c0.2,0.1,0.3,0.2,0.5,0.2c0.1,0.1,0.3,0.1,0.4,0.2c0.2,0.1,0.3,0.1,0.5,0.2c0.7,0.3,1.3,0.6,2,1c0.8,0.4,1.6,0.7,2.4,1.1
		c1.1,0.5,2.2,0.9,3.3,1.4c1.1,0.5,2.3,1,3.6,1.5c1.2,0.5,2.4,0.9,3.6,1.4c0.4,0.2,0.9,0.3,1.3,0.5c0.7,0.3,1.4,0.6,2.2,0.8
		c0.1,0,0.2,0.1,0.3,0.1c0.5,0.2,1.1,0.4,1.6,0.6c0.4,0.1,0.8,0.3,1.1,0.4c0.4,0.2,0.8,0.3,1.2,0.5c0.6,0.2,1.2,0.4,1.8,0.7
		c0.3,0.1,0.6,0.2,0.9,0.3c0.5,0.2,1,0.4,1.5,0.6c0.6,0.2,1.2,0.4,1.8,0.7c0.8,0.3,1.6,0.6,2.4,0.9c0.1,0,0.2,0.1,0.2,0.1
		c0.6,0.2,1.1,0.4,1.7,0.6c1.2,0.4,2.3,0.9,3.5,1.3c0.3,0.1,0.7,0.2,1,0.4c1.5,0.6,3,1.1,4.6,1.7c1.7,0.6,3.4,1.2,5.1,1.9
		c3.4,1.3,6.9,2.6,10.4,3.9c0,0,0,0,0.1,0C108.2,311.2,111.8,312.6,115.5,314L115.5,314L115.5,314z"/>
	<path class="st3" d="M242.7,400.4c-0.6-0.9-1.3-1.8-1.9-2.8c-0.3-0.4-0.6-0.8-0.9-1.3c-0.9-1.2-1.8-2.4-2.8-3.6
		c-0.1-0.1-0.2-0.2-0.3-0.3c-1-1.3-2.1-2.7-3.3-4c-11.6,23-41.7,88.2-52.3,106.6c-2.5,6-6,11.4-10.7,15.5l0,0c0,0,0,0,0,0
		c3.1-2.4,6.2-5.3,9.2-8.4c1.5-1.6,3-3.2,4.5-4.9c1.4-1.6,2.7-3.2,4.1-4.9c0.4-0.5,0.8-1,1.2-1.5c0.5-0.6,1-1.2,1.4-1.9
		c0.5-0.7,1-1.3,1.5-2c0.4-0.5,0.8-1,1.2-1.6c2.6-3.6,5.3-7.3,7.9-11.2c0,0,0-0.1,0.1-0.1c0.4-0.6,0.8-1.2,1.2-1.8
		c0.6-0.8,1.1-1.7,1.7-2.5c0.4-0.7,0.9-1.3,1.3-2c0.4-0.6,0.8-1.2,1.2-1.8c2.8-4.4,5.6-8.8,8.5-13.4c2.1-3.4,4.3-6.9,6.4-10.4
		c0-0.1,0.1-0.1,0.1-0.2c0,0,0,0,0,0c0-0.1,0.1-0.2,0.1-0.2c0,0,0,0,0,0c0,0,0,0,0-0.1c2.3-3.7,4.5-7.4,6.9-11.2l0,0c0,0,0,0,0,0
		l0,0c0,0,0,0,0,0c0,0,0,0,0,0l0,0c0,0,0,0,0,0l0,0c0,0,0,0,0,0c2-3.2,4-6.4,6-9.7c0,0,0,0,0,0c0,0,0,0,0,0l0,0l0,0c0,0,0,0,0,0
		c0.5-0.9,1.1-1.7,1.6-2.6c0,0,0,0,0,0l0,0c0,0,0,0,0,0c2.1-3.4,4.3-6.8,6.5-10.2c0.7-1,1.4-2.1,2-3.1
		C244.5,403.2,243.6,401.8,242.7,400.4z"/>
	<path class="st3" d="M451.8,378.4c0.8,0.8,1.6,1.6,2.3,2.4c0.1,0.1,0.2,0.2,0.3,0.3c0.8,0.9,1.5,1.7,2.3,2.6l0,0
		c0.2,0.3,0.5,0.6,0.7,0.9l0,0l0,0c0.5,0.7,1.1,1.4,1.6,2.1c0.6,0.9,1.3,1.8,1.9,2.8c0,0,0,0,0,0l0,0c0.1,0.2,0.3,0.4,0.4,0.6
		c-0.1-0.5-0.2-0.9-0.3-1.4c-0.2-0.4-0.3-0.8-0.5-1.2c-0.7-1.5-1.5-3.1-2.2-4.6c0,0,0,0,0,0c-0.3-0.6-0.6-1.1-0.9-1.7
		c-0.9-1.7-1.8-3.4-2.7-5.1c-0.6-1-1.2-2.1-1.8-3.1c-0.7-1.2-1.4-2.5-2.1-3.7c-0.8-1.3-1.5-2.5-2.3-3.8c-0.6-1-1.2-2.1-1.9-3.1
		c-0.7-1.1-1.4-2.2-2.2-3.3c-0.8-1.2-1.5-2.4-2.3-3.5c-0.7-1-1.3-1.9-2-2.9c-0.9-1.3-1.8-2.6-2.7-3.9c-0.8-1.1-1.6-2.3-2.4-3.4
		c-0.8-1.1-1.6-2.3-2.4-3.4c-2.3-3.2-4.7-6.3-7-9.5c-2.6-3.4-5.1-6.7-7.7-10c-3.3-4.3-6.6-8.4-9.9-12.5c-0.2-0.2-0.3-0.4-0.5-0.6
		c-2.3-2.9-4.6-5.8-6.9-8.6c-2.7-3.4-5.3-6.7-7.8-9.8c-2.5-3.2-4.9-6.3-7.1-9.2c-7.1,0.6-13.9,2-20.5,4.1
		C386.4,308.1,434,357.4,451.8,378.4z"/>
	<path class="st3" d="M183.9,88.6L183.9,88.6c-0.8-2.2-1.1-4.5-1.1-6.9c0-0.2,0-0.4,0-0.6c0-0.4,0.1-0.8,0.1-1.3
		c0-0.3,0.1-0.6,0.1-1c0.1-0.3,0.1-0.7,0.2-1c0.1-0.4,0.2-0.9,0.3-1.3c0.1-0.3,0.1-0.5,0.2-0.8c0.2-0.7,0.5-1.4,0.8-2.1
		c-7.3,15.5-15.1,49.5-22,83.1c4.7,1.7,11.1,3.3,17.9,4.3C181.4,141.1,183.1,106.8,183.9,88.6z"/>
</g>
</svg>
